Coordinates
version=1
nRows=16
nColumns=40
inDegrees=yes

Units are S.I. units (second, meters, Newtons, ...)
Angles are in degrees.

endheader
time	pelvis_tilt	pelvis_list	pelvis_rotation	pelvis_tx	pelvis_ty	pelvis_tz	hip_flexion_r	hip_adduction_r	hip_rotation_r	knee_angle_r	knee_angle_r_beta	ankle_angle_r	subtalar_angle_r	mtp_angle_r	hip_flexion_l	hip_adduction_l	hip_rotation_l	knee_angle_l	knee_angle_l_beta	ankle_angle_l	subtalar_angle_l	mtp_angle_l	lumbar_extension	lumbar_bending	lumbar_rotation	arm_flex_r	arm_add_r	arm_rot_r	elbow_flex_r	pro_sup_r	wrist_flex_r	wrist_dev_r	arm_flex_l	arm_add_l	arm_rot_l	elbow_flex_l	pro_sup_l	wrist_flex_l	wrist_dev_l
     24.62442857	     -0.98772608	     -4.31043519	      1.93896350	      0.97438891	      0.90873287	      0.59615537	     16.38584331	      6.66608321	     -5.84523309	     33.08430377	     33.08430377	     19.19889759	    -11.53765468	     -0.94173218	     32.57599853	    -14.52318215	      3.08214788	     53.68598835	     53.68598835	     14.54138482	    -19.39521766	     19.32837007	    -11.92020179	      4.68644886	      0.16172786	     28.90923087	    -18.30018288	    -15.55435268	     49.32012791	     46.04605039	      0.00000000	      0.00000000	      0.92432615	     -9.45248619	      2.52294958	     22.09139721	     46.48394925	      0.00000000	      0.00000000
     24.64635714	     -0.76376930	     -4.27222873	      3.11073629	      0.97342277	      0.90657521	      0.59591081	     16.45426449	      6.61477418	     -6.26409647	     34.06143467	     34.06143467	     19.76394240	    -12.72788454	     -0.83023421	     33.59923599	    -14.01249023	      3.44123676	     51.43004106	     51.43004106	     13.64459053	    -19.34069665	     19.27754515	    -12.05531043	      4.62706999	      0.61565808	     31.42652986	    -18.57338069	    -15.60623020	     50.49543084	     46.01617495	      0.00000000	      0.00000000	     -1.24968000	     -9.93683878	      2.55357117	     21.07122527	     46.42743568	      0.00000000	      0.00000000
     24.66828571	     -0.66373866	     -4.22518335	      4.24624900	      0.97248788	      0.90509494	      0.59520448	     16.44141418	      6.51423645	     -6.71279268	     34.65536857	     34.65536857	     20.25661412	    -13.63865756	     -0.39851834	     34.44860850	    -13.36649768	      3.79695405	     48.71952815	     48.71952815	     12.06586871	    -19.26612318	     18.45347947	    -12.04852225	      4.63697583	      0.66582524	     34.14724461	    -18.53118469	    -15.46302753	     51.89824414	     45.96728554	      0.00000000	      0.00000000	     -3.71771618	    -10.46629650	      2.70778175	     20.43054403	     46.32157787	      0.00000000	      0.00000000
     24.69021429	     -0.62129830	     -4.15102335	      5.32838285	      0.97161035	      0.90439412	      0.59415482	     16.28405988	      6.31190652	     -7.32102065	     34.92250178	     34.92250178	     20.77100752	    -14.03567592	      0.19701657	     35.02654497	    -12.63450759	      4.10436643	     45.63049424	     45.63049424	      9.61663301	    -19.11852476	     16.38507067	    -12.00313571	      4.63276040	      0.76128801	     36.83879400	    -18.64743282	    -15.01765454	     53.43434358	     45.89776971	      0.00000000	      0.00000000	     -6.31193189	    -10.97730690	      3.07437915	     20.93708355	     46.13399557	      0.00000000	      0.00000000
     24.71214286	     -0.68492795	     -4.06141834	      6.29738217	      0.97083043	      0.90448665	      0.59279305	     16.01179727	      6.06069160	     -7.95260366	     34.79166111	     34.79166111	     21.12263895	    -14.21585484	      0.83166073	     35.37241220	    -11.85927457	      4.35961373	     42.23682730	     42.23682730	      6.34688877	    -18.92280345	     13.00004141	    -11.84417687	      4.59234933	      1.19939964	     39.22475720	    -19.20584563	    -14.14535849	     55.07066117	     45.80216930	      0.00000000	      0.00000000	     -9.10684030	    -11.62436398	      4.17689423	     22.77547012	     45.75894053	      0.00000000	      0.00000000
     24.73407143	     -0.76940534	     -3.91186690	      7.15232484	      0.97020354	      0.90542231	      0.59115905	     15.53363662	      5.74519570	     -8.54090305	     34.28157878	     34.28157878	     21.18660088	    -14.24927450	      0.98839652	     35.47944722	    -11.01615437	      4.59618859	     38.80815412	     38.80815412	      2.96350660	    -18.52507916	     10.08104963	    -11.67305317	      4.49924356	      1.61266838	     41.59029035	    -19.67560524	    -13.34440353	     57.01588649	     45.69861253	      0.00000000	      0.00000000	    -11.75222543	    -12.34725606	      6.91104914	     24.54104312	     45.13637310	      0.00000000	      0.00000000
     24.75600000	     -1.07609580	     -3.79084412	      7.88033717	      0.96953275	      0.90673086	      0.58931014	     15.16037874	      5.44013396	     -9.06334376	     33.51328568	     33.51328568	     21.08601982	    -14.20768136	      1.15411212	     35.86757841	    -10.20218107	      4.83944446	     35.90720081	     35.90720081	      1.01935963	    -17.21570827	     10.79415706	    -11.21308770	      4.40202391	      2.31367339	     44.02416957	    -20.16589334	    -13.36945720	     58.30021892	     45.66711065	      0.00000000	      0.00000000	    -13.24500376	    -12.31282071	      7.05823106	     24.26324664	     45.08135839	      0.00000000	      0.00000000
     24.77792857	     -1.02719645	     -3.52137121	      8.53787688	      0.96937586	      0.90926388	      0.58720815	     14.07989985	      4.97813789	     -9.78191197	     32.30470397	     32.30470397	     21.00197426	    -13.50011130	      1.15375520	     35.48598683	     -9.38535143	      4.93038869	     32.87082591	     32.87082591	     -1.51909547	    -15.87388510	      9.98769439	    -11.24840815	      4.17092144	      2.07617702	     46.32153715	    -19.61239965	    -12.68196601	     61.18763546	     45.54948332	      0.00000000	      0.00000000	    -15.66596786	    -12.29245586	      7.55643707	     24.87363359	     44.93398778	      0.00000000	      0.00000000
     24.79985714	     -1.21326859	     -3.37195951	      9.05954004	      0.96925939	      0.91160147	      0.58508247	     13.21812389	      4.65650662	    -10.39538339	     30.98273303	     30.98273303	     20.78081240	    -12.80478984	      1.10696746	     35.36262174	     -8.88052367	      4.62863887	     30.21584779	     30.21584779	     -3.95359325	    -13.69551942	      8.51914480	    -10.99660786	      4.02187517	      2.24002262	     48.33527783	    -19.52972038	    -11.75995365	     63.99238719	     45.42841488	      0.00000000	      0.00000000	    -17.83148458	    -12.15759833	      8.13358127	     26.22143240	     44.78023903	      0.00000000	      0.00000000
     24.82178571	     -1.47957810	     -3.34758246	      9.44365787	      0.96924156	      0.91348224	      0.58290326	     12.52890412	      4.45556937	    -10.98167239	     29.78250668	     29.78250668	     20.32291031	    -12.27476956	      0.36542323	     35.13533989	     -8.56006561	      4.35586627	     27.55542615	     27.55542615	     -7.80462611	    -12.29061348	      3.20544565	    -10.68258214	      3.99181235	      2.86200409	     49.77157207	    -20.43990940	     -9.55047750	     68.23033248	     45.22541370	      0.00000000	      0.00000000	    -20.66034968	    -12.73829679	     10.74097100	     30.94989176	     44.33209758	      0.00000000	      0.00000000
     24.84371429	     -1.63097871	     -3.30475410	      9.77890509	      0.96940924	      0.91572570	      0.58058027	     11.54124691	      4.29003666	    -11.55283207	     28.30707808	     28.30707808	     20.11055182	    -11.37530813	      0.35422911	     34.95665604	     -8.28522513	      4.07383140	     25.78559841	     25.78559841	     -9.27446255	    -10.13552996	      2.90402341	    -10.43132034	      3.90290009	      2.81717115	     51.83521994	    -19.73136941	     -9.01443930	     70.56981286	     45.14294693	      0.00000000	      0.00000000	    -22.18111980	    -12.19957616	     11.87593682	     31.22342555	     44.17635388	      0.00000000	      0.00000000
     24.86564286	     -1.81463623	     -3.27286049	     10.02914386	      0.96981052	      0.91740661	      0.57811276	     10.66245608	      4.10581516	    -12.15648620	     27.00768249	     27.00768249	     19.86439316	    -10.44618259	     -0.03292762	     34.75936702	     -8.09990704	      3.71123186	     24.38725535	     24.38725535	    -10.70590069	     -8.34355918	      1.54368103	    -10.12052006	      3.81900349	      3.03338377	     53.25965531	    -19.66365201	     -7.68144708	     74.12989412	     45.00154839	      0.00000000	      0.00000000	    -23.90115295	    -12.01920591	     13.63198719	     33.00316834	     43.96624555	      0.00000000	      0.00000000
     24.88757143	     -1.84779187	     -3.25725981	     10.21399167	      0.97044098	      0.91907551	      0.57559842	      9.55403912	      4.04978337	    -12.53254652	     25.59341789	     25.59341789	     19.75242754	     -9.62205809	     -0.07772668	     34.27606918	     -7.96122434	      3.59736284	     23.24124848	     23.24124848	    -11.37228299	     -7.01019620	      1.22778379	     -9.95159563	      3.72260514	      3.15861083	     54.83135386	    -19.08553627	     -6.93294498	     76.66858573	     44.90831324	      0.00000000	      0.00000000	    -25.02727207	    -11.40028325	     14.58803805	     33.60772146	     43.85954285	      0.00000000	      0.00000000
     24.90950000	     -1.91667771	     -3.33154834	     10.34813138	      0.97113455	      0.91996803	      0.57298408	      8.64225642	      4.04747663	    -12.92637377	     24.42570715	     24.42570715	     19.39777510	     -8.99770069	     -1.11785933	     33.80266780	     -7.94296268	      3.53436242	     22.36774965	     22.36774965	    -12.18198514	     -6.23520121	     -0.38988411	     -9.75958361	      3.71756966	      3.92827708	     55.44176485	    -19.54499495	     -6.05826064	     80.74839036	     44.85797930	      0.00000000	      0.00000000	    -25.84334669	    -12.13601484	     19.95420401	     35.85080191	     43.55032049	      0.00000000	      0.00000000
     24.93142857	     -1.89975469	     -3.48012603	     10.48263880	      0.97203434	      0.92054369	      0.57028275	      7.68345227	      4.16553011	    -13.24837511	     23.37876267	     23.37876267	     19.49128893	     -8.31212058	     -1.06950923	     33.26430506	     -8.01143132	      3.66435546	     21.90706555	     21.90706555	    -11.81003125	     -5.49514925	     -0.44861182	     -9.60659293	      3.74444275	      3.81470852	     56.65183601	    -18.67323041	     -5.32362055	     82.93973392	     44.77444068	      0.00000000	      0.00000000	    -26.50059455	    -11.30351455	     20.26235190	     36.03689910	     43.53837305	      0.00000000	      0.00000000
     24.95335714	     -1.85336439	     -3.69907270	     10.61738825	      0.97314564	      0.92059830	      0.56742793	      6.76865782	      4.34769566	    -13.55297924	     22.48400206	     22.48400206	     19.65221088	     -7.65836188	     -1.14222840	     32.67680346	     -8.14660852	      3.95388588	     21.68188187	     21.68188187	    -10.99785857	     -4.93936289	     -0.67543688	     -9.47802303	      3.85099610	      3.68070593	     57.54959450	    -17.87726109	     -4.47944071	     85.42849556	     44.67688082	      0.00000000	      0.00000000	    -26.92062153	    -10.60517432	     20.50964490	     36.32782777	     43.53282315	      0.00000000	      0.00000000
